<svg xmlns="http://www.w3.org/2000/svg" viewBox="0 0 261.92 38.92"><defs><style>.cls-1{fill:gray;}.cls-2{fill:#567c38;}.cls-3{fill:#6cad44;}.cls-4{fill:#c4d945;}</style></defs><g id="Layer_2" data-name="Layer 2"><g id="Layer_1-2" data-name="Layer 1"><g id="Group_7466" data-name="Group 7466"><g id="Group_7464" data-name="Group 7464"><path id="Path_27543" data-name="Path 27543" class="cls-1" d="M59.34,8a1.68,1.68,0,0,1-.23.79,1.8,1.8,0,0,1-.46.56,7.29,7.29,0,0,0-2.19-1.55,10.84,10.84,0,0,0-2-.7,10.17,10.17,0,0,0-2.58-.3q-5.76,0-5.76,4.24a3.81,3.81,0,0,0,.33,1.69,3.17,3.17,0,0,0,1,1.17,5.51,5.51,0,0,0,1.51.81,14.07,14.07,0,0,0,2,.57l3.43.72a9.17,9.17,0,0,1,4.54,2.12,5.46,5.46,0,0,1,1.49,4,7.23,7.23,0,0,1-.49,2.64,5.41,5.41,0,0,1-1.5,2.07,7.41,7.41,0,0,1-2.54,1.35,11.44,11.44,0,0,1-3.58.5,14.9,14.9,0,0,1-2.9-.26A15.12,15.12,0,0,1,47,27.8a12.81,12.81,0,0,1-1.83-.88,13.91,13.91,0,0,1-1.3-.86l1-1.79c.29.23.66.48,1.11.77a11.6,11.6,0,0,0,1.61.82,11.93,11.93,0,0,0,2.1.67,12.1,12.1,0,0,0,2.61.26,7.62,7.62,0,0,0,4.34-1.08,3.79,3.79,0,0,0,1.57-3.36,4.39,4.39,0,0,0-.37-1.92,3.29,3.29,0,0,0-1-1.22,5,5,0,0,0-1.51-.73c-.58-.18-1.18-.33-1.81-.47l-3.4-.66a10.28,10.28,0,0,1-2.37-.71,6.78,6.78,0,0,1-1.9-1.22,5.65,5.65,0,0,1-1.28-1.79,5.85,5.85,0,0,1-.48-2.4,7.42,7.42,0,0,1,.4-2.43,5,5,0,0,1,1.34-2,6.72,6.72,0,0,1,2.43-1.4,11.25,11.25,0,0,1,3.64-.51,15.08,15.08,0,0,1,2.77.22,11.4,11.4,0,0,1,2,.51,7,7,0,0,1,1.3.61,7.3,7.3,0,0,1,.72.52,2.55,2.55,0,0,1,.56.66A1.35,1.35,0,0,1,59.34,8Z"/><path id="Path_27544" data-name="Path 27544" class="cls-1" d="M64.78,21.43a6.14,6.14,0,0,0,1.84,3.94,6.61,6.61,0,0,0,6.53.91,11.84,11.84,0,0,0,1.57-.84L75.56,27l-.7.45a7.7,7.7,0,0,1-1.12.54,9.94,9.94,0,0,1-1.5.45,8.86,8.86,0,0,1-1.85.18,8,8,0,0,1-3-.55A6.89,6.89,0,0,1,65,26.5a7.59,7.59,0,0,1-1.66-2.62,9.85,9.85,0,0,1-.6-3.61,10.84,10.84,0,0,1,.57-3.62,8.37,8.37,0,0,1,1.62-2.82A7.24,7.24,0,0,1,67.35,12,8.22,8.22,0,0,1,73,11.75a4.85,4.85,0,0,1,1.8,1.07,4.39,4.39,0,0,1,1.08,1.64,5.45,5.45,0,0,1,.36,2,5.12,5.12,0,0,1-.38,2,3.88,3.88,0,0,1-1.33,1.59A7.15,7.15,0,0,1,72,21.15a17,17,0,0,1-4,.38l-1.69,0C65.86,21.5,65.33,21.47,64.78,21.43Zm-.06-1.72c.52,0,1,.07,1.51.08l1.54,0A15.84,15.84,0,0,0,71,19.53a6.54,6.54,0,0,0,2-.75,2.66,2.66,0,0,0,1-1.1,3,3,0,0,0,.28-1.32A3.25,3.25,0,0,0,74,14.8a2.79,2.79,0,0,0-.89-1,4,4,0,0,0-1.27-.54,6.52,6.52,0,0,0-1.45-.17,5,5,0,0,0-4.14,2,7.14,7.14,0,0,0-1.1,2.12,8.38,8.38,0,0,0-.41,2.49Z"/><path id="Path_27545" data-name="Path 27545" class="cls-1" d="M78.92,4.9a1.26,1.26,0,0,1,.25-.81A.94.94,0,0,1,80,3.78a1.69,1.69,0,0,1,.5.08,2.75,2.75,0,0,1,.36.15V28.19h-1.9Z"/><path id="Path_27546" data-name="Path 27546" class="cls-1" d="M84.53,4.9a1.31,1.31,0,0,1,.24-.81,1,1,0,0,1,.8-.31,1.74,1.74,0,0,1,.5.08l.36.15V28.18h-1.9Z"/><path id="Path_27547" data-name="Path 27547" class="cls-1" d="M92.5,6a1.74,1.74,0,0,1-.42,1.14,1.26,1.26,0,0,1-1,.48,1.23,1.23,0,0,1-1-.48A1.74,1.74,0,0,1,89.7,6a1.68,1.68,0,0,1,.4-1.13,1.27,1.27,0,0,1,1-.46,1.31,1.31,0,0,1,1,.46A1.69,1.69,0,0,1,92.5,6ZM90.16,13a1.26,1.26,0,0,1,.25-.81.93.93,0,0,1,.79-.31,1.69,1.69,0,0,1,.5.08l.36.15V28.18h-1.9Z"/><path id="Path_27548" data-name="Path 27548" class="cls-1" d="M107.09,28.18V19.05a6.79,6.79,0,0,0-1.2-4.28,5,5,0,0,0-7.22,0,6.86,6.86,0,0,0-1.18,4.28v9.13h-1.9v-9.8a8.58,8.58,0,0,1,.46-2.84,6.36,6.36,0,0,1,1.33-2.22,5.84,5.84,0,0,1,2.1-1.44,7.25,7.25,0,0,1,2.8-.52,7.53,7.53,0,0,1,2.81.52,6,6,0,0,1,2.12,1.44,6.18,6.18,0,0,1,1.32,2.22,8.34,8.34,0,0,1,.47,2.84v9.8Z"/><path id="Path_27549" data-name="Path 27549" class="cls-1" d="M126.93,25.37a14.72,14.72,0,0,1-.6,4.52,8.1,8.1,0,0,1-1.69,3,6.55,6.55,0,0,1-2.56,1.69,9.58,9.58,0,0,1-3.22.53,12.1,12.1,0,0,1-3.49-.42A18.19,18.19,0,0,1,113.5,34l.52-1.78.56.24a5.82,5.82,0,0,0,1,.35c.41.11.87.21,1.39.3a10.73,10.73,0,0,0,1.7.14,10.44,10.44,0,0,0,2.16-.25,4.83,4.83,0,0,0,2.06-1,5.86,5.86,0,0,0,1.56-2.22,9.94,9.94,0,0,0,.62-3.86v-.8a6.75,6.75,0,0,1-2.35,2.62,6.2,6.2,0,0,1-3.33.9,7.5,7.5,0,0,1-3.2-.66,6.82,6.82,0,0,1-2.38-1.84,8.52,8.52,0,0,1-1.48-2.75,10.63,10.63,0,0,1-.52-3.4,9.88,9.88,0,0,1,.56-3.36,8.66,8.66,0,0,1,1.57-2.75A7.37,7.37,0,0,1,116.34,12a7.08,7.08,0,0,1,3.1-.68,7.26,7.26,0,0,1,2.68.48,6.75,6.75,0,0,1,2.19,1.37,7.64,7.64,0,0,1,1.59,2.19,10.22,10.22,0,0,1,.89,2.91c0,.31.07.67.1,1.08s0,.88,0,1.41ZM113.85,20a9.46,9.46,0,0,0,.38,2.75,6.3,6.3,0,0,0,1.13,2.16,5.1,5.1,0,0,0,4.08,1.89,4.91,4.91,0,0,0,2.29-.53,5.44,5.44,0,0,0,1.76-1.44,6.32,6.32,0,0,0,1.12-2.15A8.87,8.87,0,0,0,125,20a8.48,8.48,0,0,0-.4-2.69,6.6,6.6,0,0,0-1.12-2.11,5.13,5.13,0,0,0-4-1.93,5.06,5.06,0,0,0-2.32.53,5.72,5.72,0,0,0-1.76,1.44,6.45,6.45,0,0,0-1.12,2.16,8.63,8.63,0,0,0-.4,2.62Z"/><path id="Path_27550" data-name="Path 27550" class="cls-1" d="M130.8,23a7.6,7.6,0,0,0,.95.65,11.36,11.36,0,0,0,1.57.76,13.41,13.41,0,0,0,2.13.65,12.1,12.1,0,0,0,2.61.26,5.86,5.86,0,0,0,3.59-.84,2.9,2.9,0,0,0,1.09-2.4,3.19,3.19,0,0,0-.25-1.29,2.47,2.47,0,0,0-.72-.91,4,4,0,0,0-1.15-.62,13.55,13.55,0,0,0-1.55-.4l-3.17-.66a11.8,11.8,0,0,1-2.33-.7,7,7,0,0,1-2-1.22,5.68,5.68,0,0,1-1.39-1.87,6.26,6.26,0,0,1-.51-2.67,7.72,7.72,0,0,1,.44-2.65,5.6,5.6,0,0,1,1.43-2.18A7.12,7.12,0,0,1,134,5.41a10.66,10.66,0,0,1,3.63-.54,15.31,15.31,0,0,1,2.71.2,11,11,0,0,1,2,.48,6.84,6.84,0,0,1,1.3.57c.33.2.57.36.72.47a3.52,3.52,0,0,1,.75.79,1.72,1.72,0,0,1,.29,1,2.71,2.71,0,0,1-.4,1.41,3.64,3.64,0,0,1-.75.91,4.15,4.15,0,0,0-.82-.75A7.29,7.29,0,0,0,142,9.17a12.56,12.56,0,0,0-1.91-.63,10.2,10.2,0,0,0-2.4-.26,8.34,8.34,0,0,0-2.17.23,3.82,3.82,0,0,0-1.4.65,2.44,2.44,0,0,0-.75,1,3.45,3.45,0,0,0-.23,1.31,2.44,2.44,0,0,0,.85,2,6.84,6.84,0,0,0,2.84,1.14l3.23.7a9.74,9.74,0,0,1,4.73,2.17,5.73,5.73,0,0,1,1.58,4.35,7.05,7.05,0,0,1-.55,2.87,6.09,6.09,0,0,1-1.6,2.2,7.12,7.12,0,0,1-2.62,1.42,12,12,0,0,1-3.62.5,14.69,14.69,0,0,1-3.17-.31,17.5,17.5,0,0,1-2.56-.76,12.11,12.11,0,0,1-1.88-.92c-.5-.3-.86-.55-1.09-.72Z"/><path id="Path_27551" data-name="Path 27551" class="cls-1" d="M151,4.11a1.81,1.81,0,0,1,1.41.66,2.36,2.36,0,0,1,.58,1.62A2.37,2.37,0,0,1,152.36,8a1.84,1.84,0,0,1-2.82,0A2.37,2.37,0,0,1,149,6.39a2.36,2.36,0,0,1,.58-1.62A1.81,1.81,0,0,1,151,4.11Zm-1.64,9.2a1.7,1.7,0,0,1,.46-1.34,1.85,1.85,0,0,1,1.3-.41,2.59,2.59,0,0,1,1,.15,5.18,5.18,0,0,1,.57.21V28.18h-3.28Z"/><path id="Path_27552" data-name="Path 27552" class="cls-1" d="M156,17.49a7.12,7.12,0,0,1,.49-2.78,5.39,5.39,0,0,1,1.34-2,5.54,5.54,0,0,1,2-1.21,7.34,7.34,0,0,1,2.51-.41,6.62,6.62,0,0,1,3.2.76,5.58,5.58,0,0,1,2.24,2.25A5.59,5.59,0,0,1,170,11.86a6.41,6.41,0,0,1,3.15-.76,7.39,7.39,0,0,1,2.47.4,5.32,5.32,0,0,1,2,1.19,5.71,5.71,0,0,1,1.33,2,7.31,7.31,0,0,1,.49,2.78V28.19h-3.29V18.75a4.8,4.8,0,0,0-.89-3.26,3.12,3.12,0,0,0-2.42-1,3.27,3.27,0,0,0-2.47,1.09,5.22,5.22,0,0,0-1,3.55v9h-3.28v-9a5.22,5.22,0,0,0-1-3.55,3.4,3.4,0,0,0-4.89-.1,4.77,4.77,0,0,0-.92,3.28v9.4H156Z"/><path id="Path_27553" data-name="Path 27553" class="cls-1" d="M182.5,20.63a13.22,13.22,0,0,1,.58-4.09,8.55,8.55,0,0,1,1.61-3,6.82,6.82,0,0,1,2.51-1.83,8.09,8.09,0,0,1,3.26-.63,6.85,6.85,0,0,1,3,.66,7.56,7.56,0,0,1,2.41,1.82,8.41,8.41,0,0,1,1.6,2.78,10.51,10.51,0,0,1,.58,3.51,10.87,10.87,0,0,1-.56,3.53A8.57,8.57,0,0,1,196,26.16a7.1,7.1,0,0,1-2.34,1.8,6.56,6.56,0,0,1-2.92.65,5.89,5.89,0,0,1-4.9-2.52V34.8H182.5Zm7.73,4.64a4,4,0,0,0,1.8-.41,4.46,4.46,0,0,0,1.41-1.15,5.27,5.27,0,0,0,.91-1.72,7.13,7.13,0,0,0,.31-2.15,6.81,6.81,0,0,0-.31-2.1,5.31,5.31,0,0,0-.91-1.69A4.54,4.54,0,0,0,192,14.92a4,4,0,0,0-1.8-.41,4.12,4.12,0,0,0-1.8.4A4.22,4.22,0,0,0,187,16a5.1,5.1,0,0,0-.92,1.68,7.23,7.23,0,0,0,0,4.32,5.69,5.69,0,0,0,.91,1.72,4,4,0,0,0,3.23,1.55Z"/><path id="Path_27554" data-name="Path 27554" class="cls-1" d="M200.85,5.53a1.75,1.75,0,0,1,.46-1.32,1.82,1.82,0,0,1,1.3-.43,3,3,0,0,1,.95.15l.58.21v24h-3.29Z"/><path id="Path_27555" data-name="Path 27555" class="cls-1" d="M209.29,4.11a1.84,1.84,0,0,1,1.41.66,2.41,2.41,0,0,1,.58,1.62A2.42,2.42,0,0,1,210.7,8a1.85,1.85,0,0,1-2.83,0,2.41,2.41,0,0,1-.57-1.63,2.4,2.4,0,0,1,.57-1.62A1.84,1.84,0,0,1,209.29,4.11Zm-1.65,9.2A1.74,1.74,0,0,1,208.1,12a1.86,1.86,0,0,1,1.3-.41,2.61,2.61,0,0,1,1,.15c.28.09.47.17.57.21V28.18h-3.29Z"/><path id="Path_27556" data-name="Path 27556" class="cls-1" d="M214.5,10.53a8.61,8.61,0,0,1,.5-3.14,5.49,5.49,0,0,1,1.36-2.09,5.39,5.39,0,0,1,2-1.16,8.26,8.26,0,0,1,2.52-.36,8.59,8.59,0,0,1,3.75.61,1.86,1.86,0,0,1,1.21,1.67,2,2,0,0,1-.27,1,2.32,2.32,0,0,1-.6.68,2.58,2.58,0,0,0-.64-.38,7.51,7.51,0,0,0-.91-.31,9,9,0,0,0-1-.22,6.5,6.5,0,0,0-1-.08,3.7,3.7,0,0,0-2.71,1,4.09,4.09,0,0,0-1,3v.83h8.33a1.5,1.5,0,0,1,1.36.51,3.07,3.07,0,0,1,.31,1.58V28.18H224.5V15h-6.75V28.18H214.5Z"/><path id="Path_27557" data-name="Path 27557" class="cls-1" d="M244.09,27l-.72.46a6.2,6.2,0,0,1-1.23.56,12.2,12.2,0,0,1-1.7.47,10.8,10.8,0,0,1-2.12.2,8,8,0,0,1-3-.57,6.77,6.77,0,0,1-2.45-1.67,8,8,0,0,1-1.66-2.71,10.37,10.37,0,0,1-.6-3.7,10.37,10.37,0,0,1,.59-3.62,8.44,8.44,0,0,1,1.64-2.81,7.44,7.44,0,0,1,2.48-1.83,7.63,7.63,0,0,1,3.13-.64,7.27,7.27,0,0,1,2.65.44,6,6,0,0,1,1.95,1.2,4.89,4.89,0,0,1,1.2,1.74,5.65,5.65,0,0,1,.4,2.11,5.75,5.75,0,0,1-.38,2.1,3.66,3.66,0,0,1-1.33,1.63,7.47,7.47,0,0,1-2.56,1.06,18.8,18.8,0,0,1-4.1.38l-1.08,0-1.08,0a4.26,4.26,0,0,0,1.43,2.73,5,5,0,0,0,3.41,1,7.2,7.2,0,0,0,1.39-.14,6.46,6.46,0,0,0,1.14-.33,7.41,7.41,0,0,0,.86-.4l.53-.3ZM234,19.11l1.27,0h1.21a11.71,11.71,0,0,0,2.57-.23,4.7,4.7,0,0,0,1.53-.6,1.77,1.77,0,0,0,.72-.83,2.81,2.81,0,0,0,.17-1,2.14,2.14,0,0,0-.88-1.88,3.58,3.58,0,0,0-2.17-.63,3.82,3.82,0,0,0-1.88.43,4.13,4.13,0,0,0-1.35,1.14,5.13,5.13,0,0,0-.85,1.64A6.43,6.43,0,0,0,234,19.11Z"/><path id="Path_27558" data-name="Path 27558" class="cls-1" d="M258.66,5.53a1.77,1.77,0,0,1,.44-1.32,1.79,1.79,0,0,1,1.29-.43,3.09,3.09,0,0,1,.95.15l.57.21V19.08a13.29,13.29,0,0,1-.59,4.2,8.49,8.49,0,0,1-1.62,3,6.62,6.62,0,0,1-2.46,1.79,7.72,7.72,0,0,1-3.08.6A7.33,7.33,0,0,1,251,28a7.48,7.48,0,0,1-2.46-1.82,8.49,8.49,0,0,1-1.63-2.78,10.27,10.27,0,0,1-.59-3.51,10.82,10.82,0,0,1,.56-3.53,8.48,8.48,0,0,1,1.56-2.78,6.89,6.89,0,0,1,2.33-1.82,6.63,6.63,0,0,1,2.93-.65,5.82,5.82,0,0,1,2.94.74,6.05,6.05,0,0,1,2,1.81Zm0,14.34a7,7,0,0,0-.33-2.12,5.69,5.69,0,0,0-.91-1.72,4.17,4.17,0,0,0-1.4-1.14,4,4,0,0,0-1.8-.42,4,4,0,0,0-1.82.42A4.47,4.47,0,0,0,251,16a5.18,5.18,0,0,0-.91,1.7,7.19,7.19,0,0,0-.31,2.16,7,7,0,0,0,.31,2.13,5.12,5.12,0,0,0,.91,1.69,4.5,4.5,0,0,0,1.4,1.13,4,4,0,0,0,1.82.41,4,4,0,0,0,1.8-.4,4.15,4.15,0,0,0,1.4-1.09,5.42,5.42,0,0,0,.91-1.69A7.29,7.29,0,0,0,258.66,19.87Z"/></g><g id="Group_7465" data-name="Group 7465"><path id="Path_27559" data-name="Path 27559" class="cls-2" d="M18.11.2S30.68,1.63,30.53,15H22.37s3.79-4,2.58-8.4C24.34,4.35,22.52,1.49,18.11.2Z"/><path id="Path_27560" data-name="Path 27560" class="cls-3" d="M22.45,13.26a8.66,8.66,0,0,0,1.7-4.51,8,8,0,0,0-.49-3.43C21.78.62,10.36-2.46,4.55,2.61A10.83,10.83,0,0,0,1.34,8.09s-1.65,8.47,16.26,9.4c0,0-8.48-2.11-8.55-4.32a4.91,4.91,0,0,1,3.63-5.93,4.33,4.33,0,0,1,.72-.12S22.3,5.55,22.45,13.26Z"/><path id="Path_27561" data-name="Path 27561" class="cls-4" d="M.52,10s.46,7.8,17.11,8.72c0,0,19.6,1.7,11.73,20.19,0,0,3.28-10.82-14.35-12.2C15,26.72-3.28,23.91.52,10Z"/></g></g></g></g></svg>