<svg id="Layer_1" data-name="Layer 1" xmlns="http://www.w3.org/2000/svg" viewBox="0 0 280 39.97"><defs><style>.cls-1{fill:#f8f8f8;}.cls-2{fill:#567c38;}.cls-3{fill:#6cad44;}.cls-4{fill:#c4d945;}</style></defs><g id="Group_7466" data-name="Group 7466"><g id="Group_7464" data-name="Group 7464"><path id="Path_27543" data-name="Path 27543" class="cls-1" d="M63.64,12.84a1.48,1.48,0,0,1-.23.79,1.67,1.67,0,0,1-.46.56,6.21,6.21,0,0,0-.81-.73,7.43,7.43,0,0,0-1.38-.83,11.86,11.86,0,0,0-2-.7,10.17,10.17,0,0,0-2.58-.3c-3.84,0-5.77,1.41-5.77,4.24a3.92,3.92,0,0,0,.33,1.69,3.4,3.4,0,0,0,.95,1.18,5.51,5.51,0,0,0,1.51.81,13.67,13.67,0,0,0,2,.56l3.43.73A9.12,9.12,0,0,1,63.19,23a5.4,5.4,0,0,1,1.48,4,7,7,0,0,1-.49,2.63,5.31,5.31,0,0,1-1.5,2.07,7.26,7.26,0,0,1-2.54,1.36,11.67,11.67,0,0,1-3.57.5,14.9,14.9,0,0,1-2.9-.26,13.58,13.58,0,0,1-2.36-.68,12.32,12.32,0,0,1-1.83-.88,13.91,13.91,0,0,1-1.3-.86l1-1.79c.29.22.66.47,1.11.76a10.65,10.65,0,0,0,1.61.83,12.79,12.79,0,0,0,2.1.66,11.45,11.45,0,0,0,2.61.26,7.62,7.62,0,0,0,4.34-1.08,3.79,3.79,0,0,0,1.57-3.36,4.37,4.37,0,0,0-.38-1.92,3.2,3.2,0,0,0-1-1.23,5.28,5.28,0,0,0-1.51-.73,18.6,18.6,0,0,0-1.82-.46l-3.4-.66A10.2,10.2,0,0,1,52,21.45a6.6,6.6,0,0,1-1.9-1.23,5.44,5.44,0,0,1-1.28-1.79,5.68,5.68,0,0,1-.47-2.4,7.16,7.16,0,0,1,.4-2.43,5.12,5.12,0,0,1,1.34-2,6.74,6.74,0,0,1,2.42-1.39,11.25,11.25,0,0,1,3.64-.51,16.08,16.08,0,0,1,2.77.21,12.36,12.36,0,0,1,2,.51,7,7,0,0,1,1.3.61q.38.24.72.51a2.73,2.73,0,0,1,.56.66A1.46,1.46,0,0,1,63.64,12.84Z"/><path id="Path_27544" data-name="Path 27544" class="cls-1" d="M69.08,26.25a6.11,6.11,0,0,0,1.85,3.94,5.78,5.78,0,0,0,4,1.39,5.88,5.88,0,0,0,2.49-.48A13.13,13.13,0,0,0,79,30.26l.84,1.59c-.15.11-.39.26-.69.45a7.75,7.75,0,0,1-1.12.55,9.94,9.94,0,0,1-1.5.45,8.23,8.23,0,0,1-1.85.18,8,8,0,0,1-3-.55,6.92,6.92,0,0,1-2.45-1.61,7.59,7.59,0,0,1-1.66-2.62A10.08,10.08,0,0,1,67,25.09a10.7,10.7,0,0,1,.58-3.63,8.47,8.47,0,0,1,1.61-2.81,7.11,7.11,0,0,1,2.46-1.82,8.15,8.15,0,0,1,5.65-.27,5,5,0,0,1,1.8,1.08,4.39,4.39,0,0,1,1.08,1.64,5.66,5.66,0,0,1,.36,2,4.89,4.89,0,0,1-.39,2,3.93,3.93,0,0,1-1.32,1.59A7.15,7.15,0,0,1,76.33,26a17,17,0,0,1-4,.38l-1.69,0C70.17,26.32,69.64,26.29,69.08,26.25ZM69,24.53c.52,0,1,.07,1.51.08l1.54,0a15.28,15.28,0,0,0,3.23-.28,6.52,6.52,0,0,0,2-.74,2.66,2.66,0,0,0,1-1.1,3.21,3.21,0,0,0,.29-1.32,3.37,3.37,0,0,0-.33-1.56,2.8,2.8,0,0,0-.89-1,4,4,0,0,0-1.27-.55,5.92,5.92,0,0,0-1.45-.16,5,5,0,0,0-2.39.55,5.26,5.26,0,0,0-1.74,1.47,7.14,7.14,0,0,0-1.1,2.12A8.33,8.33,0,0,0,69,24.53Z"/><path id="Path_27545" data-name="Path 27545" class="cls-1" d="M83.22,9.73a1.3,1.3,0,0,1,.25-.81.94.94,0,0,1,.79-.31,1.69,1.69,0,0,1,.5.08,2.28,2.28,0,0,1,.36.15V33h-1.9Z"/><path id="Path_27546" data-name="Path 27546" class="cls-1" d="M88.83,9.73a1.24,1.24,0,0,1,.25-.81.94.94,0,0,1,.79-.31,1.69,1.69,0,0,1,.5.08l.36.15V33h-1.9Z"/><path id="Path_27547" data-name="Path 27547" class="cls-1" d="M96.8,10.85A1.64,1.64,0,0,1,96.38,12a1.29,1.29,0,0,1-1,.48,1.25,1.25,0,0,1-1-.48,1.71,1.71,0,0,1-.4-1.14,1.68,1.68,0,0,1,.4-1.13,1.24,1.24,0,0,1,1-.46,1.33,1.33,0,0,1,1,.46A1.64,1.64,0,0,1,96.8,10.85Zm-2.33,6.92a1.24,1.24,0,0,1,.25-.81.94.94,0,0,1,.79-.31,1.69,1.69,0,0,1,.5.08,2.28,2.28,0,0,1,.36.15V33h-1.9Z"/><path id="Path_27548" data-name="Path 27548" class="cls-1" d="M111.4,33V23.87a6.76,6.76,0,0,0-1.2-4.27,4.32,4.32,0,0,0-3.62-1.52A4.27,4.27,0,0,0,103,19.6a6.83,6.83,0,0,0-1.18,4.27V33H99.9v-9.8a8.64,8.64,0,0,1,.46-2.85,6.42,6.42,0,0,1,1.32-2.22,5.84,5.84,0,0,1,2.1-1.44,7.24,7.24,0,0,1,2.8-.51,7.48,7.48,0,0,1,2.81.51,5.92,5.92,0,0,1,2.12,1.44,6.45,6.45,0,0,1,1.33,2.22,8.39,8.39,0,0,1,.46,2.85V33Z"/><path id="Path_27549" data-name="Path 27549" class="cls-1" d="M131.24,30.19a14.72,14.72,0,0,1-.61,4.52,7.89,7.89,0,0,1-1.69,3,6.52,6.52,0,0,1-2.57,1.69,9.48,9.48,0,0,1-3.21.53,11.75,11.75,0,0,1-3.49-.41,17.37,17.37,0,0,1-1.87-.68l.52-1.79.56.25a6.56,6.56,0,0,0,1,.35q.6.16,1.38.3a9.66,9.66,0,0,0,1.7.13,9.8,9.8,0,0,0,2.16-.25,4.72,4.72,0,0,0,2.06-1,5.86,5.86,0,0,0,1.56-2.22,9.94,9.94,0,0,0,.62-3.86V30A6.82,6.82,0,0,1,127,32.57a6.2,6.2,0,0,1-3.33.9,7.5,7.5,0,0,1-3.2-.66A6.7,6.7,0,0,1,118.1,31a8.52,8.52,0,0,1-1.48-2.75,10.92,10.92,0,0,1-.52-3.4,9.88,9.88,0,0,1,.56-3.36,8.55,8.55,0,0,1,1.57-2.75,7.37,7.37,0,0,1,2.41-1.85,7.08,7.08,0,0,1,3.1-.68,7.22,7.22,0,0,1,2.68.48A6.61,6.61,0,0,1,128.61,18a7.64,7.64,0,0,1,1.59,2.19,10.22,10.22,0,0,1,.89,2.91c0,.31.07.67.1,1.08s0,.88,0,1.41Zm-13.09-5.36a9.14,9.14,0,0,0,.39,2.75,6.08,6.08,0,0,0,1.13,2.15,5.17,5.17,0,0,0,1.76,1.39,5.33,5.33,0,0,0,2.32.5,4.91,4.91,0,0,0,2.29-.53,5.44,5.44,0,0,0,1.76-1.44,6.32,6.32,0,0,0,1.12-2.15,8.87,8.87,0,0,0,.39-2.7,8.42,8.42,0,0,0-.4-2.68A6.54,6.54,0,0,0,127.79,20,5.36,5.36,0,0,0,126,18.59a5.35,5.35,0,0,0-4.6,0,5.44,5.44,0,0,0-1.76,1.44,6.32,6.32,0,0,0-1.12,2.15,8.65,8.65,0,0,0-.4,2.63Z"/><path id="Path_27550" data-name="Path 27550" class="cls-1" d="M135.11,27.81a8.85,8.85,0,0,0,.95.65,11.36,11.36,0,0,0,1.57.76,14.17,14.17,0,0,0,2.13.65,12,12,0,0,0,2.61.26,6,6,0,0,0,3.59-.84,2.86,2.86,0,0,0,1.08-2.4,3.18,3.18,0,0,0-.24-1.29,2.47,2.47,0,0,0-.72-.91,3.75,3.75,0,0,0-1.15-.61,11.61,11.61,0,0,0-1.54-.4L140.22,23a12.1,12.1,0,0,1-2.34-.7,6.83,6.83,0,0,1-2-1.23,5.52,5.52,0,0,1-1.38-1.87,6.25,6.25,0,0,1-.52-2.66,8,8,0,0,1,.45-2.65,5.49,5.49,0,0,1,1.43-2.19,7,7,0,0,1,2.48-1.47A10.67,10.67,0,0,1,142,9.7a16.4,16.4,0,0,1,2.71.2,13.34,13.34,0,0,1,2,.48A6.88,6.88,0,0,1,148,11c.33.2.57.35.72.46a3.52,3.52,0,0,1,.75.79,1.74,1.74,0,0,1,.29,1,2.68,2.68,0,0,1-.4,1.41,3.64,3.64,0,0,1-.75.91,4.43,4.43,0,0,0-.82-.74,7.52,7.52,0,0,0-1.38-.78,10.84,10.84,0,0,0-4.31-.9,8.93,8.93,0,0,0-2.18.23,3.82,3.82,0,0,0-1.4.65,2.44,2.44,0,0,0-.75,1,3.45,3.45,0,0,0-.23,1.31,2.44,2.44,0,0,0,.85,2,6.84,6.84,0,0,0,2.84,1.14l3.23.7a9.74,9.74,0,0,1,4.73,2.17,5.74,5.74,0,0,1,1.59,4.35,7,7,0,0,1-.55,2.86,6.12,6.12,0,0,1-1.6,2.2A7.2,7.2,0,0,1,146,33.09a12,12,0,0,1-3.62.5,15.28,15.28,0,0,1-3.17-.31,16.8,16.8,0,0,1-2.57-.76,11.54,11.54,0,0,1-1.87-.91c-.5-.31-.86-.55-1.1-.73Z"/><path id="Path_27551" data-name="Path 27551" class="cls-1" d="M155.26,8.93a1.78,1.78,0,0,1,1.41.66,2.41,2.41,0,0,1,.58,1.62,2.36,2.36,0,0,1-.58,1.62,1.81,1.81,0,0,1-1.41.66,1.78,1.78,0,0,1-1.41-.66,2.41,2.41,0,0,1-.58-1.62,2.36,2.36,0,0,1,.58-1.62A1.81,1.81,0,0,1,155.26,8.93Zm-1.65,9.2a1.7,1.7,0,0,1,.46-1.34,1.86,1.86,0,0,1,1.3-.41,3,3,0,0,1,.95.15l.57.21V33H153.6Z"/><path id="Path_27552" data-name="Path 27552" class="cls-1" d="M160.28,22.31a7.31,7.31,0,0,1,.49-2.78,5.6,5.6,0,0,1,1.34-2,5.71,5.71,0,0,1,2-1.21,7.38,7.38,0,0,1,2.51-.41,6.62,6.62,0,0,1,3.2.76,5.66,5.66,0,0,1,2.25,2.25,5.59,5.59,0,0,1,2.22-2.25,6.37,6.37,0,0,1,3.14-.76,7.49,7.49,0,0,1,2.48.4,5.32,5.32,0,0,1,3.31,3.18,7.35,7.35,0,0,1,.49,2.78V33h-3.29V23.57a4.8,4.8,0,0,0-.89-3.26,3.4,3.4,0,0,0-4.88.11,5.16,5.16,0,0,0-1,3.54v9h-3.28V24a5.21,5.21,0,0,0-1-3.54,3.38,3.38,0,0,0-4.88-.1,4.75,4.75,0,0,0-.92,3.28V33H160.3Z"/><path id="Path_27553" data-name="Path 27553" class="cls-1" d="M186.81,25.46a13.22,13.22,0,0,1,.58-4.09,8.55,8.55,0,0,1,1.61-3,6.73,6.73,0,0,1,2.51-1.84,8.27,8.27,0,0,1,3.26-.63,7,7,0,0,1,3,.66,7.56,7.56,0,0,1,2.41,1.82,8.41,8.41,0,0,1,1.6,2.78,10.51,10.51,0,0,1,.58,3.51,10.87,10.87,0,0,1-.56,3.53A8.39,8.39,0,0,1,200.27,31a7,7,0,0,1-2.34,1.8,6.57,6.57,0,0,1-2.93.65,5.7,5.7,0,0,1-2.91-.73,6,6,0,0,1-2-1.79v8.71h-3.29V25.46Zm7.72,4.63a4,4,0,0,0,1.8-.41,4.35,4.35,0,0,0,1.41-1.14,5.37,5.37,0,0,0,.91-1.72,7.14,7.14,0,0,0,.32-2.15,6.53,6.53,0,0,0-.32-2.1,5,5,0,0,0-.91-1.69,4.54,4.54,0,0,0-1.41-1.13,3.89,3.89,0,0,0-1.8-.41,4,4,0,0,0-1.8.4,4.28,4.28,0,0,0-1.41,1.09,5.06,5.06,0,0,0-.92,1.67,6.65,6.65,0,0,0-.33,2.17,6.53,6.53,0,0,0,.33,2.15,5.57,5.57,0,0,0,.91,1.72,4.07,4.07,0,0,0,1.4,1.14,4,4,0,0,0,1.82.41Z"/><path id="Path_27554" data-name="Path 27554" class="cls-1" d="M205.16,10.36A1.72,1.72,0,0,1,205.62,9a1.82,1.82,0,0,1,1.3-.43,3.09,3.09,0,0,1,1,.15,5.87,5.87,0,0,1,.58.22V33h-3.29V10.36Z"/><path id="Path_27555" data-name="Path 27555" class="cls-1" d="M213.59,8.93a1.78,1.78,0,0,1,1.41.66,2.41,2.41,0,0,1,.58,1.62,2.36,2.36,0,0,1-.58,1.62,1.81,1.81,0,0,1-1.41.66,1.78,1.78,0,0,1-1.41-.66,2.41,2.41,0,0,1-.58-1.62,2.36,2.36,0,0,1,.58-1.62A1.84,1.84,0,0,1,213.59,8.93ZM212,18.13a1.7,1.7,0,0,1,.46-1.34,1.86,1.86,0,0,1,1.3-.41,3,3,0,0,1,.95.15l.57.21V33h-3.29Z"/><path id="Path_27556" data-name="Path 27556" class="cls-1" d="M218.8,15.36a8.67,8.67,0,0,1,.5-3.15,5.59,5.59,0,0,1,1.37-2.09,5.35,5.35,0,0,1,2-1.16,8.64,8.64,0,0,1,2.52-.37A8.89,8.89,0,0,1,229,9.2a1.83,1.83,0,0,1,.94,2.68,2.39,2.39,0,0,1-.59.68,2.36,2.36,0,0,0-.65-.38,5.74,5.74,0,0,0-.91-.31c-.34-.09-.68-.16-1-.22a6.61,6.61,0,0,0-1-.08,3.7,3.7,0,0,0-2.71,1,4.09,4.09,0,0,0-1,3v.83h8.33a1.5,1.5,0,0,1,1.36.51,3.17,3.17,0,0,1,.32,1.57V33h-3.26V19.86h-6.74V33h-3.26V15.36Z"/><path id="Path_27557" data-name="Path 27557" class="cls-1" d="M248.39,31.78c-.15.11-.39.26-.72.46a6.83,6.83,0,0,1-1.23.56,12.56,12.56,0,0,1-1.7.46,10.09,10.09,0,0,1-2.12.2,8,8,0,0,1-3-.56,6.85,6.85,0,0,1-2.45-1.67,8.06,8.06,0,0,1-1.66-2.71,10.55,10.55,0,0,1-.61-3.69,10.37,10.37,0,0,1,.59-3.62,8.44,8.44,0,0,1,1.64-2.81,7.32,7.32,0,0,1,2.48-1.82,7.48,7.48,0,0,1,3.13-.65,7.07,7.07,0,0,1,2.65.45,6,6,0,0,1,2,1.19,4.89,4.89,0,0,1,1.2,1.74,5.47,5.47,0,0,1,.4,2.12,5.58,5.58,0,0,1-.38,2.1,3.61,3.61,0,0,1-1.32,1.62,7.44,7.44,0,0,1-2.57,1.06,18.17,18.17,0,0,1-4.09.38l-1.08,0-1.08-.05a4.26,4.26,0,0,0,1.43,2.73,5.06,5.06,0,0,0,3.42,1,7.09,7.09,0,0,0,1.38-.13,7.44,7.44,0,0,0,1.14-.33,6.85,6.85,0,0,0,.87-.4l.53-.3Zm-10.12-7.85,1.27,0h1.21a11.71,11.71,0,0,0,2.57-.23,4.7,4.7,0,0,0,1.53-.6,1.77,1.77,0,0,0,.72-.83,2.63,2.63,0,0,0,.17-1,2.16,2.16,0,0,0-.88-1.89,3.59,3.59,0,0,0-2.18-.63,3.92,3.92,0,0,0-1.87.43,4.27,4.27,0,0,0-1.36,1.14A5.34,5.34,0,0,0,238.6,22,6.89,6.89,0,0,0,238.27,23.93Z"/><path id="Path_27558" data-name="Path 27558" class="cls-1" d="M263,10.36A1.74,1.74,0,0,1,263.41,9a1.77,1.77,0,0,1,1.28-.43,3,3,0,0,1,.95.15,5.87,5.87,0,0,1,.58.22V23.91a13.4,13.4,0,0,1-.59,4.21,8.6,8.6,0,0,1-1.63,3,6.67,6.67,0,0,1-2.45,1.79,7.79,7.79,0,0,1-3.08.6A7.35,7.35,0,0,1,252.88,31a8.38,8.38,0,0,1-1.63-2.78,10.27,10.27,0,0,1-.59-3.51,10.87,10.87,0,0,1,.56-3.53,8.58,8.58,0,0,1,1.56-2.78,6.92,6.92,0,0,1,2.34-1.82,6.71,6.71,0,0,1,2.93-.65,5.79,5.79,0,0,1,2.94.74,6,6,0,0,1,2,1.8V10.36Zm0,14.33a6.91,6.91,0,0,0-.33-2.12,5.57,5.57,0,0,0-.91-1.72,4.17,4.17,0,0,0-1.4-1.14,3.89,3.89,0,0,0-1.8-.41,4,4,0,0,0-1.82.41,4.39,4.39,0,0,0-1.4,1.13,5,5,0,0,0-.91,1.7,7.14,7.14,0,0,0-.32,2.15,6.77,6.77,0,0,0,.32,2.14,5,5,0,0,0,.91,1.69,4.23,4.23,0,0,0,1.4,1.12,4,4,0,0,0,1.82.41,4,4,0,0,0,1.8-.4,4.15,4.15,0,0,0,1.4-1.09,5.31,5.31,0,0,0,.91-1.69A6.71,6.71,0,0,0,263,24.69Z"/></g><g id="Group_7465" data-name="Group 7465"><path id="Path_27559" data-name="Path 27559" class="cls-2" d="M22.42,5S35,6.46,34.84,19.78H26.68s3.79-4.06,2.58-8.41C28.64,9.17,26.83,6.31,22.42,5Z"/><path id="Path_27560" data-name="Path 27560" class="cls-3" d="M26.76,18.09a8.7,8.7,0,0,0,1.7-4.51A8,8,0,0,0,28,10.15c-1.88-4.7-13.3-7.78-19.11-2.71a10.69,10.69,0,0,0-3.21,5.48S4,21.39,21.91,22.33c0,0-8.48-2.11-8.56-4.33A4.92,4.92,0,0,1,17,12.07,4.51,4.51,0,0,1,17.7,12S26.61,10.37,26.76,18.09Z"/><path id="Path_27561" data-name="Path 27561" class="cls-4" d="M4.83,14.83s.46,7.8,17.11,8.72c0,0,19.6,1.7,11.73,20.19,0,0,3.28-10.82-14.36-12.19C19.31,31.55,1,28.73,4.83,14.83Z"/></g></g></svg>